<?xml version="1.0" encoding="utf-8"?>
<!-- Generator: Adobe Illustrator 18.0.0, SVG Export Plug-In . SVG Version: 6.00 Build 0)  -->
<!DOCTYPE svg PUBLIC "-//W3C//DTD SVG 1.1//EN" "http://www.w3.org/Graphics/SVG/1.1/DTD/svg11.dtd">
<svg version="1.1" xmlns="http://www.w3.org/2000/svg" xmlns:xlink="http://www.w3.org/1999/xlink" x="0px" y="0px"
	 viewBox="0 0 600 200" enable-background="new 0 0 600 200" xml:space="preserve">
<g id="レイヤー_1">
	<rect fill="#C6423F" width="560" height="200"/>
	<rect x="560" fill="#5B1B18" width="40" height="200"/>
</g>
<g id="レイヤー_2">
	<path fill="#59231F" d="M431.1,65.2h-8.8c0,22.6,20,40.8,44.7,40.8v-8C447.2,98,431.1,83.3,431.1,65.2z"/>
	<path fill="#59231F" d="M472.5,121.8v-8.8c-22.6,0-40.8,20-40.8,44.7h8C439.7,137.9,454.4,121.8,472.5,121.8z"/>
	<path fill="#59231F" d="M377.3,91.2v8.8c22.6,0,40.8-20,40.8-44.7h-8C410.2,75.2,395.5,91.2,377.3,91.2z"/>
	<path fill="#59231F" d="M415.1,149.9h8.8c0-22.6-20-40.8-44.7-40.8v8C399.1,117.1,415.1,131.8,415.1,149.9z"/>
</g>
</svg>
