<?xml version="1.0" encoding="utf-8"?>
<!-- Generator: Adobe Illustrator 18.0.0, SVG Export Plug-In . SVG Version: 6.00 Build 0)  -->
<!DOCTYPE svg PUBLIC "-//W3C//DTD SVG 1.1//EN" "http://www.w3.org/Graphics/SVG/1.1/DTD/svg11.dtd">
<svg version="1.1" id="レイヤー_1" xmlns="http://www.w3.org/2000/svg" xmlns:xlink="http://www.w3.org/1999/xlink" x="0px"
	 y="0px" viewBox="0 0 600 200" enable-background="new 0 0 600 200" xml:space="preserve">
<rect fill="#DFEE1C" width="560" height="200"/>
<rect x="560" fill="#B6C234" width="40" height="200"/>
<g>
	<path fill="#FFFFFF" d="M475.9,55.7c-21.2,0-38.4,17.2-38.4,38.4c0,11.8,3,16.3,13.7,29.4s11.9,28.6,11.9,28.6h24.4
		c0,0,2-14,13.2-28.6s13.7-17.6,13.7-29.4C514.3,72.9,497.1,55.7,475.9,55.7"/>
	<path fill="#FFFFFF" d="M488.1,156.5h-24.4V171h2.7c0.8,4.4,4.8,7.8,9.5,7.8c4.8,0,8.7-3.4,9.5-7.8h2.7V156.5z"/>
</g>
<polygon fill="#FFFFFF" points="503.8,52 517.5,22.5 530,22.5 "/>
<polygon fill="#FFFFFF" points="451,54 434.6,23.4 420.2,24.9 "/>
<polygon fill="#FFFFFF" points="474.5,52 475.7,19.4 487.3,14.7 "/>
</svg>
