<?xml version="1.0" encoding="utf-8"?>
<!-- Generator: Adobe Illustrator 18.0.0, SVG Export Plug-In . SVG Version: 6.00 Build 0)  -->
<!DOCTYPE svg PUBLIC "-//W3C//DTD SVG 1.1//EN" "http://www.w3.org/Graphics/SVG/1.1/DTD/svg11.dtd">
<svg version="1.1" id="レイヤー_1" xmlns="http://www.w3.org/2000/svg" xmlns:xlink="http://www.w3.org/1999/xlink" x="0px"
	 y="0px" viewBox="0 0 600 200" enable-background="new 0 0 600 200" xml:space="preserve">
<rect fill="#97E746" width="560" height="200"/>
<rect x="560" fill="#6A9841" width="40" height="200"/>
<path fill="#FFFFFF" d="M386.5,167.8H368c-2.5,0-4.5-2-4.5-4.5v-87c0-2.5,2-4.5,4.5-4.5h18.5c2.5,0,4.5,2,4.5,4.5l-6,43.5l6,43.5
	C391,165.8,389,167.8,386.5,167.8z"/>
<path fill="#FFFFFF" d="M476.2,62.3c-7.8-3.7-31.8,6.8-31.8,6.8l13-15.1c3.5-5.6-0.9-29.1-6.5-32.6l-7.9-4.9c-5.6-3.5-9-4-12.5,1.7
	c0,0,2.5,1.7-13.2,27.7s-22.3,25.3-22.3,28.5v76.8c0,6.6,2.7,21.3,9.3,21.3c0,0,17.2,9.2,26,12c8.8,2.8,19.3,3,39-7
	s20.9-12.2,20.9-18.8l0.8-3.8c0,0,3-11.7,3-41.3s-5.7-39.2-5.7-39.2S484,66,476.2,62.3z"/>
</svg>
