<?xml version="1.0" encoding="utf-8"?>
<!-- Generator: Adobe Illustrator 18.0.0, SVG Export Plug-In . SVG Version: 6.00 Build 0)  -->
<!DOCTYPE svg PUBLIC "-//W3C//DTD SVG 1.1//EN" "http://www.w3.org/Graphics/SVG/1.1/DTD/svg11.dtd">
<svg version="1.1" id="レイヤー_1" xmlns="http://www.w3.org/2000/svg" xmlns:xlink="http://www.w3.org/1999/xlink" x="0px"
	 y="0px" viewBox="0 0 600 200" enable-background="new 0 0 600 200" xml:space="preserve">
<rect fill="#7A3EFC" width="560" height="200"/>
<rect x="560" fill="#524584" width="40" height="200"/>
<g>
	<path fill="#524584" d="M488.1,49.9c-14.8,0.8-31.3,14.7-31.4,32.2c0,3.4,1.6,8.7,5.5,9.7c0.9,0.2,10.1-1.7,11.7-4.7
		c0.5-1-5.4-2.3-6.3-3.6c-3.7-5.2-2-15.3,4.9-20.8c7.1-5.7,19.5-3.6,24.6,0.7c8.1,6.8,5.7,15.7,3.2,21.2c-5,11-24.3,21.4-33.6,28.7
		c-6.8,5.4,0.3,11.8,0.9,17.2l1.7,0.3c3-1.3-1.8-8.4,3.8-13.4c6.9-6.1,28.3-10.7,37.7-32.9C517.6,68.3,515.7,48.4,488.1,49.9z"/>
	<path fill="#524584" d="M468.3,155.2c-1.2,1.1-6.2,0.8-6.2,0.8l-8.8-1.8c0,0,1.5-2,2.5-6.6c0.6-2.5-0.1-7.7-0.1-7.7
		s3.2,1.6,7.8,2.5c4.5,0.9,8.2-0.6,8.2-0.6l-0.9,7.9C470.6,149.7,469.5,154,468.3,155.2z"/>
</g>
</svg>
