<?xml version="1.0" encoding="utf-8"?>
<!-- Generator: Adobe Illustrator 18.0.0, SVG Export Plug-In . SVG Version: 6.00 Build 0)  -->
<!DOCTYPE svg PUBLIC "-//W3C//DTD SVG 1.1//EN" "http://www.w3.org/Graphics/SVG/1.1/DTD/svg11.dtd">
<svg version="1.1" id="レイヤー_1" xmlns="http://www.w3.org/2000/svg" xmlns:xlink="http://www.w3.org/1999/xlink" x="0px"
	 y="0px" viewBox="0 0 600 200" enable-background="new 0 0 600 200" xml:space="preserve">
<rect fill="#6FC7D6" width="560" height="200"/>
<rect x="560" fill="#4882C5" width="40" height="200"/>
<path fill="#FFFFFF" d="M482,120.7c1.7-11.4,0.7-14,0.8-22.2c0-2-4.7-18.6-7.8-26.8s-38-43.8-36.8-42.9c1.7,1.3,9.6,26.9,0.1,48
	c-3.7,8.2-14.7,10.9-29.1,24.9c-14.4,14-6.4,45.7,11,55.9c17.4,10.2,42,5.6,54.8-16.3C478.9,134.4,481.1,129,482,120.7
	C482,120.6,482,120.7,482,120.7z"/>
</svg>
