<?xml version="1.0" encoding="utf-8"?>
<!-- Generator: Adobe Illustrator 18.0.0, SVG Export Plug-In . SVG Version: 6.00 Build 0)  -->
<!DOCTYPE svg PUBLIC "-//W3C//DTD SVG 1.1//EN" "http://www.w3.org/Graphics/SVG/1.1/DTD/svg11.dtd">
<svg version="1.1" id="レイヤー_1" xmlns="http://www.w3.org/2000/svg" xmlns:xlink="http://www.w3.org/1999/xlink" x="0px"
	 y="0px" viewBox="0 0 62.6 63.6" enable-background="new 0 0 62.6 63.6" xml:space="preserve">
<g>
	<defs>
		<rect id="SVGID_1_" width="62.6" height="63.6"/>
	</defs>
	<clipPath id="SVGID_2_">
		<use xlink:href="#SVGID_1_"  overflow="visible"/>
	</clipPath>
	<g clip-path="url(#SVGID_2_)">
		<g>
			<path fill="#039FE7" d="M2.5,24.1c0-9,5.4-17.3,13.7-20.8c8.5-3.6,18-1.8,24.4,4.6c6.8,6.8,9,16.2,4.8,24.7c-2,4-0.7,5.9,1.9,8.3
				c4.2,4,8.1,8.4,12.5,12.2c2.7,2.4,2.1,3.9-0.2,5.8c-1.9,1.6-3.2,4.4-6.2,1c-4.2-4.7-9-8.8-13.3-13.5c-2.2-2.5-4-2.9-7.2-1.6
				C18.3,50.6,2.6,39.8,2.5,24.1z"/>
			<path fill="#FDFEFE" d="M25.7,8.5c8.6,0.1,15.7,7.3,15.7,16c0,8.9-7.4,16.1-16.2,16c-8.8-0.2-15.7-7.2-15.7-16
				C9.5,15.6,16.8,8.4,25.7,8.5z"/>
		</g>
	</g>
</g>
</svg>
